PathFileType	4	(X/Y/Z)	Walk7.trc
DataRate	CameraRate	NumFrames	NumMarkers	Units	OrigDataRate	OrigDataStartFrame	OrigNumFrames
200.000000	200.000000	4	61	mm	200.000000	198	437
Frame#	Times		LFHD		RFHD		CLAV		STRN		LASI		RASI		RACR1		RUA1		RFA1		RWRU		RCAR		LACR1		LUA1		LFA1		LWRU		LCAR		RTH3		RTB4		LTH1		LTH3		LTH2		LTH4		LLFC		LTB1		LTB3		LTB2		LTB4		RTB1		RTB3		RMT5		RMFC		LBHD		RWRR		RTH2		RToe		RMT1		LElbow		RLFC		LWRR		RTB2		RMMAL		RTH4		RElbow		LMFC		LToe		LPSI		T10		RBack		RLMAL		RBHD		RTH1		RCAL		RPSI		C7		LElbowM		LMMAL		RElbowM		LLMAL		LCAL		LMT5		LMT1
			X1	Y1	Z1	X2	Y2	Z2	X3	Y3	Z3	X4	Y4	Z4	X5	Y5	Z5	X6	Y6	Z6	X7	Y7	Z7	X8	Y8	Z8	X9	Y9	Z9	X10	Y10	Z10	X11	Y11	Z11	X12	Y12	Z12	X13	Y13	Z13	X14	Y14	Z14	X15	Y15	Z15	X16	Y16	Z16	X17	Y17	Z17	X18	Y18	Z18	X19	Y19	Z19	X20	Y20	Z20	X21	Y21	Z21	X22	Y22	Z22	X23	Y23	Z23	X24	Y24	Z24	X25	Y25	Z25	X26	Y26	Z26	X27	Y27	Z27	X28	Y28	Z28	X29	Y29	Z29	X30	Y30	Z30	X31	Y31	Z31	X32	Y32	Z32	X33	Y33	Z33	X34	Y34	Z34	X35	Y35	Z35	X36	Y36	Z36	X37	Y37	Z37	X38	Y38	Z38	X39	Y39	Z39	X40	Y40	Z40	X41	Y41	Z41	X42	Y42	Z42	X43	Y43	Z43	X44	Y44	Z44	X45	Y45	Z45	X46	Y46	Z46	X47	Y47	Z47	X48	Y48	Z48	X49	Y49	Z49	X50	Y50	Z50	X51	Y51	Z51	X52	Y52	Z52	X53	Y53	Z53	X54	Y54	Z54	X55	Y55	Z55	X56	Y56	Z56	X57	Y57	Z57	X58	Y58	Z58	X59	Y59	Z59	X60	Y60	Z60	X61	Y61	Z61

198	0.99	-228.33	1583.4	-74.003	-234.81	1587.7	25.469	-284.64	1311.6	-21.815	-264.87	1177.2	-13.544	-303.24	911.39	-114.74	-312.45	916.77	134.58	-346.62	1352.8	144.72	-347.05	1184.9	203.45	-256.02	913.54	255.31	-164.55	835.5	214.9	-149.24	763.36	254.48	-359.54	1355.4	-176.14	-393.11	1182.8	-233.67	-423.99	896.14	-283.8	-373.17	782.74	-271.93	-401.16	720.68	-310.45	-333.08	575.98	183.72	-462.2	283.17	124.04	-337.46	742.51	-180.09	-313.6	576.55	-139.77	-269.92	672.16	-145.29	-326.87	658.99	-161.88	-291.53	439.04	-113.48	-260.26	341.41	-43.808	-287.39	173.37	-26.554	-288.15	253.27	-95.782	-275.78	256.79	-35.791	-388.04	329.59	132.13	-534.77	238.32	112.69	-651.14	104.33	127.33	-335.92	420.88	36.058	-373.49	1527.3	-103.53	-214.44	800.94	246.04	-288.02	670.05	170.88	-594.14	44.174	86.454	-615.85	87.435	50.191	-439.69	1032.6	-255.33	-331.23	426.17	165.66	-442.08	779.72	-273.05	-489.35	320.92	163.72	-629.89	220.22	46.547	-341.17	659.38	193.81	-342.76	1018.4	242.83	-315.15	434.13	17.695	-152.9	27.841	-20.329	-481.09	964.85	-42.847	-470.75	1208.1	-6.8787	-471.46	1297.5	58.762	-657.37	222.72	124.59	-379.71	1539.1	39.488	-346.84	745.41	208.25	-699.83	251.64	79.147	-481.81	959.67	57.317	-393.1	1417.5	-23.624	-452.01	1014.6	-183.58	-334.38	84.021	12.415	-376.12	1007.5	170.86	-345.55	63.718	-67.61	-402.67	36.497	-26.871	-239.76	24.286	-77.418	-209.41	31.829	6.3618
199	0.995	-220.81	1584.4	-74.139	-227.34	1588.8	25.318	-277.58	1312.9	-21.776	-257.78	1178.6	-13.266	-295.91	912.26	-114.66	-305.49	918.58	134.44	-340.25	1354	144.71	-341.2	1186.1	203.28	-251.42	913.9	255.47	-160.59	834.73	215.53	-146.06	762.65	255.46	-352.07	1356.8	-176.2	-384.48	1184.2	-234.23	-410.76	897.21	-285.06	-357.82	784.85	-272.96	-384.32	722.38	-311.8	-321.9	578.19	183.97	-446.51	284.44	123.93	-331.23	743.29	-179.95	-309.79	576.92	-139.9	-264.84	672.04	-144.83	-321.87	659.56	-161.86	-290	438.92	-113.54	-259.27	341.18	-43.995	-286.98	173.26	-26.692	-287.56	253.15	-95.917	-275.05	256.63	-35.941	-372.78	331.49	132.05	-518.68	238.97	112.57	-631.48	104.27	127.9	-321.65	423.34	36.154	-366.13	1528.7	-103.64	-210.89	800.86	246.8	-278.21	672.89	171.24	-572.8	45.546	87.535	-595.67	87.745	50.913	-429.25	1033.5	-256.57	-317.06	428.56	165.84	-426.64	780.49	-274.52	-474.05	322	163.52	-613.37	219.77	46.193	-331.35	661.55	194.09	-337.1	1019.5	242.31	-314.08	434.1	17.557	-152.89	27.879	-20.377	-473.78	966.16	-43.554	-463.6	1209.3	-7.4814	-464.54	1298.7	58.153	-641.05	221.97	124.23	-372.36	1540.7	39.359	-338.48	747.36	208.35	-684.59	249.42	78.443	-474.74	961.02	56.637	-386.02	1418.8	-23.758	-441.78	1015.2	-184.97	-334.27	84.106	12.398	-370.04	1008.8	170.08	-345.55	63.784	-67.63	-402.66	36.624	-26.89	-239.77	24.29	-77.438	-209.42	31.865	6.3534
200	1	-213.33	1585.4	-74.251	-219.88	1589.9	25.194	-270.53	1314.3	-21.746	-250.69	1180	-12.994	-288.58	913.08	-114.54	-298.51	920.39	134.3	-333.88	1355.3	144.69	-335.34	1187.3	203.12	-246.87	914.28	255.66	-156.69	833.98	216.21	-142.93	761.96	256.51	-344.63	1358.3	-176.25	-375.91	1185.6	-234.79	-397.52	898.35	-286.26	-342.45	787.1	-273.91	-367.44	724.23	-313.05	-310.75	580.47	184.23	-430.74	285.6	123.85	-325	744.03	-179.77	-306.02	577.29	-140.01	-259.81	671.91	-144.3	-316.88	660.09	-161.8	-288.54	438.83	-113.58	-258.34	340.98	-44.131	-286.6	173.17	-26.792	-286.99	253.06	-96.018	-274.37	256.5	-36.047	-357.53	333.41	132	-502.42	239.39	112.47	-611.49	103.9	128.47	-307.48	425.87	36.267	-358.79	1530.1	-103.71	-207.4	800.8	247.62	-268.46	675.79	171.63	-551.05	46.769	88.651	-575.1	87.797	51.676	-418.82	1034.5	-257.79	-302.98	431.06	166.02	-411.15	781.38	-275.92	-458.75	322.96	163.31	-596.6	218.91	45.835	-321.55	663.75	194.38	-331.47	1020.5	241.83	-313.14	434.1	17.425	-152.87	27.908	-20.415	-466.47	967.44	-44.244	-456.45	1210.4	-8.0888	-457.62	1299.8	57.549	-624.52	220.78	123.85	-365.01	1542.3	39.262	-330.18	749.33	208.48	-669.12	246.7	77.707	-467.65	962.37	55.977	-378.95	1420.1	-23.882	-431.55	1015.9	-186.31	-334.15	84.204	12.387	-364.03	1010	169.36	-345.54	63.871	-67.639	-402.64	36.775	-26.899	-239.77	24.29	-77.446	-209.41	31.886	6.3514
201	1.005	-205.88	1586.4	-74.344	-212.44	1591	25.094	-263.49	1315.6	-21.727	-243.61	1181.4	-12.735	-281.27	913.84	-114.4	-291.51	922.16	134.17	-327.49	1356.5	144.65	-329.48	1188.4	202.95	-242.36	914.66	255.89	-152.84	833.23	216.95	-139.86	761.27	257.62	-337.22	1359.8	-176.3	-367.39	1187	-235.33	-384.28	899.57	-287.41	-327.08	789.47	-274.78	-350.53	726.22	-314.19	-299.62	582.78	184.49	-414.9	286.67	123.8	-318.8	744.72	-179.55	-302.28	577.64	-140.09	-254.82	671.75	-143.73	-311.92	660.58	-161.69	-287.15	438.76	-113.59	-257.49	340.82	-44.217	-286.23	173.12	-26.853	-286.43	253	-96.083	-273.73	256.4	-36.109	-342.31	335.33	132	-486.01	239.6	112.4	-591.19	103.23	129.06	-293.4	428.43	36.393	-351.47	1531.4	-103.75	-203.96	800.75	248.49	-258.78	678.72	172.05	-528.94	47.84	89.806	-554.18	87.602	52.48	-408.41	1035.5	-258.99	-289.01	433.64	166.18	-395.62	782.4	-277.23	-443.46	323.79	163.1	-579.59	217.65	45.476	-311.8	665.94	194.68	-325.86	1021.5	241.39	-312.32	434.12	17.294	-152.84	27.926	-20.444	-459.15	968.66	-44.91	-449.3	1211.5	-8.7	-450.69	1300.8	56.948	-607.78	219.17	123.45	-357.68	1543.7	39.196	-321.93	751.29	208.63	-653.4	243.5	76.947	-460.55	963.68	55.343	-371.89	1421.3	-23.999	-421.31	1016.5	-187.61	-334.04	84.315	12.383	-358.07	1011.3	168.7	-345.51	63.98	-67.637	-402.61	36.95	-26.897	-239.76	24.285	-77.442	-209.4	31.894	6.3557
